<?xml version="1.0" encoding="UTF-8" standalone="no"?>
<!DOCTYPE svg PUBLIC "-//W3C//DTD SVG 1.1//EN"
 "http://www.w3.org/Graphics/SVG/1.1/DTD/svg11.dtd">
<!-- Generated by graphviz version 5.0.0 (20220707.1540)
 -->
<!-- Title: dependencies Pages: 1 -->
<svg width="660pt" height="174pt"
 viewBox="0.00 0.00 660.00 173.80" xmlns="http://www.w3.org/2000/svg" xmlns:xlink="http://www.w3.org/1999/xlink">
<g id="graph0" class="graph" transform="scale(1 1) rotate(0) translate(4 169.8)">
<title>dependencies</title>
<polygon fill="white" stroke="transparent" points="-4,4 -4,-169.8 656,-169.8 656,4 -4,4"/>
<text text-anchor="middle" x="326" y="-8.2" font-family="sans-serif" font-size="14.00">dependencies</text>
<g id="clust1" class="cluster">
<title>cluster_SaladModule</title>
<polygon fill="none" stroke="black" stroke-dasharray="1,5" points="8,-32.8 8,-157.8 644,-157.8 644,-32.8 8,-32.8"/>
</g>
<g id="clust5" class="cluster">
<title>cluster_SaladModule_imports</title>
<polygon fill="none" stroke="black" points="320,-40.8 320,-92.8 636,-92.8 636,-40.8 320,-40.8"/>
</g>
<g id="clust2" class="cluster">
<title>cluster_SaladModule_declarations</title>
<polygon fill="none" stroke="black" points="16,-40.8 16,-92.8 312,-92.8 312,-40.8 16,-40.8"/>
</g>
<!-- SaladComponent -->
<g id="node1" class="node">
<title>SaladComponent</title>
<polygon fill="#ffffb3" stroke="black" points="304.44,-84.8 191.56,-84.8 191.56,-48.8 304.44,-48.8 304.44,-84.8"/>
<text text-anchor="middle" x="248" y="-62.6" font-family="Times,serif" font-size="14.00">SaladComponent</text>
</g>
<!-- SaladModule -->
<g id="node3" class="node">
<title>SaladModule</title>
<polygon fill="#8dd3c7" stroke="black" points="369.16,-149.8 366.16,-153.8 345.16,-153.8 342.16,-149.8 278.84,-149.8 278.84,-113.8 369.16,-113.8 369.16,-149.8"/>
<text text-anchor="middle" x="324" y="-127.6" font-family="Times,serif" font-size="14.00">SaladModule</text>
</g>
<!-- SaladComponent&#45;&gt;SaladModule -->
<g id="edge1" class="edge">
<title>SaladComponent&#45;&gt;SaladModule</title>
<path fill="none" stroke="black" d="M291.44,-84.91C291.44,-84.91 291.44,-103.79 291.44,-103.79"/>
<polygon fill="black" stroke="black" points="287.94,-103.79 291.44,-113.79 294.94,-103.79 287.94,-103.79"/>
</g>
<!-- ToppingListComponent -->
<g id="node2" class="node">
<title>ToppingListComponent</title>
<polygon fill="#ffffb3" stroke="black" points="174.05,-84.8 23.95,-84.8 23.95,-48.8 174.05,-48.8 174.05,-84.8"/>
<text text-anchor="middle" x="99" y="-62.6" font-family="Times,serif" font-size="14.00">ToppingListComponent</text>
</g>
<!-- ToppingListComponent&#45;&gt;SaladModule -->
<g id="edge2" class="edge">
<title>ToppingListComponent&#45;&gt;SaladModule</title>
<path fill="none" stroke="black" d="M99,-84.91C99,-104.14 99,-131.8 99,-131.8 99,-131.8 268.74,-131.8 268.74,-131.8"/>
<polygon fill="black" stroke="black" points="268.74,-135.3 278.74,-131.8 268.74,-128.3 268.74,-135.3"/>
</g>
<!-- SaladRoutingModule -->
<g id="node4" class="node">
<title>SaladRoutingModule</title>
<polygon fill="#8dd3c7" stroke="black" points="627.77,-84.8 624.77,-88.8 603.77,-88.8 600.77,-84.8 492.23,-84.8 492.23,-48.8 627.77,-48.8 627.77,-84.8"/>
<text text-anchor="middle" x="560" y="-62.6" font-family="Times,serif" font-size="14.00">SaladRoutingModule</text>
</g>
<!-- SaladRoutingModule&#45;&gt;SaladModule -->
<g id="edge3" class="edge">
<title>SaladRoutingModule&#45;&gt;SaladModule</title>
<path fill="none" stroke="black" d="M560,-84.91C560,-104.14 560,-131.8 560,-131.8 560,-131.8 379.22,-131.8 379.22,-131.8"/>
<polygon fill="black" stroke="black" points="379.22,-128.3 369.22,-131.8 379.22,-135.3 379.22,-128.3"/>
</g>
<!-- SharedMaterialModule -->
<g id="node5" class="node">
<title>SharedMaterialModule</title>
<polygon fill="#8dd3c7" stroke="black" points="473.85,-84.8 470.85,-88.8 449.85,-88.8 446.85,-84.8 328.15,-84.8 328.15,-48.8 473.85,-48.8 473.85,-84.8"/>
<text text-anchor="middle" x="401" y="-62.6" font-family="Times,serif" font-size="14.00">SharedMaterialModule</text>
</g>
<!-- SharedMaterialModule&#45;&gt;SaladModule -->
<g id="edge4" class="edge">
<title>SharedMaterialModule&#45;&gt;SaladModule</title>
<path fill="none" stroke="black" d="M348.7,-84.91C348.7,-84.91 348.7,-103.79 348.7,-103.79"/>
<polygon fill="black" stroke="black" points="345.2,-103.79 348.7,-113.79 352.2,-103.79 345.2,-103.79"/>
</g>
</g>
</svg>
