<?xml version="1.0" encoding="UTF-8" standalone="no"?>
<!DOCTYPE svg PUBLIC "-//W3C//DTD SVG 1.1//EN"
 "http://www.w3.org/Graphics/SVG/1.1/DTD/svg11.dtd">
<!-- Generated by graphviz version 5.0.0 (20220707.1540)
 -->
<!-- Title: dependencies Pages: 1 -->
<svg width="749pt" height="247pt"
 viewBox="0.00 0.00 749.00 246.80" xmlns="http://www.w3.org/2000/svg" xmlns:xlink="http://www.w3.org/1999/xlink">
<g id="graph0" class="graph" transform="scale(1 1) rotate(0) translate(4 242.8)">
<title>dependencies</title>
<polygon fill="white" stroke="transparent" points="-4,4 -4,-242.8 745,-242.8 745,4 -4,4"/>
<text text-anchor="middle" x="370.5" y="-8.2" font-family="sans-serif" font-size="14.00">dependencies</text>
<g id="clust1" class="cluster">
<title>cluster_AppModule</title>
<polygon fill="none" stroke="black" stroke-dasharray="1,5" points="8,-32.8 8,-230.8 733,-230.8 733,-32.8 8,-32.8"/>
</g>
<g id="clust2" class="cluster">
<title>cluster_AppModule_declarations</title>
<polygon fill="none" stroke="black" points="441,-40.8 441,-92.8 725,-92.8 725,-40.8 441,-40.8"/>
</g>
<g id="clust7" class="cluster">
<title>cluster_AppModule_bootstrap</title>
<polygon fill="none" stroke="black" points="299,-170.8 299,-222.8 423,-222.8 423,-170.8 299,-170.8"/>
</g>
<g id="clust5" class="cluster">
<title>cluster_AppModule_imports</title>
<polygon fill="none" stroke="black" points="16,-40.8 16,-92.8 433,-92.8 433,-40.8 16,-40.8"/>
</g>
<!-- AppComponent -->
<g id="node1" class="node">
<title>AppComponent</title>
<polygon fill="#ffffb3" stroke="black" points="716.94,-84.8 611.06,-84.8 611.06,-48.8 716.94,-48.8 716.94,-84.8"/>
<text text-anchor="middle" x="664" y="-62.6" font-family="Times,serif" font-size="14.00">AppComponent</text>
</g>
<!-- AppModule -->
<g id="node3" class="node">
<title>AppModule</title>
<polygon fill="#8dd3c7" stroke="black" points="402.66,-149.8 399.66,-153.8 378.66,-153.8 375.66,-149.8 319.34,-149.8 319.34,-113.8 402.66,-113.8 402.66,-149.8"/>
<text text-anchor="middle" x="361" y="-127.6" font-family="Times,serif" font-size="14.00">AppModule</text>
</g>
<!-- AppComponent&#45;&gt;AppModule -->
<g id="edge1" class="edge">
<title>AppComponent&#45;&gt;AppModule</title>
<path fill="none" stroke="black" d="M664,-85.08C664,-106.12 664,-137.8 664,-137.8 664,-137.8 412.81,-137.8 412.81,-137.8"/>
<polygon fill="black" stroke="black" points="412.81,-134.3 402.81,-137.8 412.81,-141.3 412.81,-134.3"/>
</g>
<!-- OrderFormComponent -->
<g id="node2" class="node">
<title>OrderFormComponent</title>
<polygon fill="#ffffb3" stroke="black" points="593.32,-84.8 448.68,-84.8 448.68,-48.8 593.32,-48.8 593.32,-84.8"/>
<text text-anchor="middle" x="521" y="-62.6" font-family="Times,serif" font-size="14.00">OrderFormComponent</text>
</g>
<!-- OrderFormComponent&#45;&gt;AppModule -->
<g id="edge2" class="edge">
<title>OrderFormComponent&#45;&gt;AppModule</title>
<path fill="none" stroke="black" d="M521,-84.82C521,-102.17 521,-125.8 521,-125.8 521,-125.8 413.04,-125.8 413.04,-125.8"/>
<polygon fill="black" stroke="black" points="413.04,-122.3 403.04,-125.8 413.04,-129.3 413.04,-122.3"/>
</g>
<!-- AppComponent  -->
<g id="node7" class="node">
<title>AppComponent </title>
<polygon fill="#80b1d3" stroke="black" points="415.44,-214.8 306.56,-214.8 306.56,-178.8 415.44,-178.8 415.44,-214.8"/>
<text text-anchor="middle" x="361" y="-192.6" font-family="Times,serif" font-size="14.00">AppComponent </text>
</g>
<!-- AppModule&#45;&gt;AppComponent  -->
<g id="edge6" class="edge">
<title>AppModule&#45;&gt;AppComponent </title>
<path fill="none" stroke="black" stroke-dasharray="1,5" d="M361,-149.91C361,-149.91 361,-168.79 361,-168.79"/>
<polygon fill="black" stroke="black" points="357.5,-168.79 361,-178.79 364.5,-168.79 357.5,-168.79"/>
</g>
<!-- AppRoutingModule -->
<g id="node4" class="node">
<title>AppRoutingModule</title>
<polygon fill="#8dd3c7" stroke="black" points="425.28,-84.8 422.28,-88.8 401.28,-88.8 398.28,-84.8 296.72,-84.8 296.72,-48.8 425.28,-48.8 425.28,-84.8"/>
<text text-anchor="middle" x="361" y="-62.6" font-family="Times,serif" font-size="14.00">AppRoutingModule</text>
</g>
<!-- AppRoutingModule&#45;&gt;AppModule -->
<g id="edge3" class="edge">
<title>AppRoutingModule&#45;&gt;AppModule</title>
<path fill="none" stroke="black" d="M361,-84.91C361,-84.91 361,-103.79 361,-103.79"/>
<polygon fill="black" stroke="black" points="357.5,-103.79 361,-113.79 364.5,-103.79 357.5,-103.79"/>
</g>
<!-- SaladModule -->
<g id="node5" class="node">
<title>SaladModule</title>
<polygon fill="#8dd3c7" stroke="black" points="278.16,-84.8 275.16,-88.8 254.16,-88.8 251.16,-84.8 187.84,-84.8 187.84,-48.8 278.16,-48.8 278.16,-84.8"/>
<text text-anchor="middle" x="233" y="-62.6" font-family="Times,serif" font-size="14.00">SaladModule</text>
</g>
<!-- SaladModule&#45;&gt;AppModule -->
<g id="edge4" class="edge">
<title>SaladModule&#45;&gt;AppModule</title>
<path fill="none" stroke="black" d="M233,-84.82C233,-102.17 233,-125.8 233,-125.8 233,-125.8 309.09,-125.8 309.09,-125.8"/>
<polygon fill="black" stroke="black" points="309.09,-129.3 319.09,-125.8 309.09,-122.3 309.09,-129.3"/>
</g>
<!-- SharedMaterialModule -->
<g id="node6" class="node">
<title>SharedMaterialModule</title>
<polygon fill="#8dd3c7" stroke="black" points="169.85,-84.8 166.85,-88.8 145.85,-88.8 142.85,-84.8 24.15,-84.8 24.15,-48.8 169.85,-48.8 169.85,-84.8"/>
<text text-anchor="middle" x="97" y="-62.6" font-family="Times,serif" font-size="14.00">SharedMaterialModule</text>
</g>
<!-- SharedMaterialModule&#45;&gt;AppModule -->
<g id="edge5" class="edge">
<title>SharedMaterialModule&#45;&gt;AppModule</title>
<path fill="none" stroke="black" d="M97,-85.08C97,-106.12 97,-137.8 97,-137.8 97,-137.8 309.17,-137.8 309.17,-137.8"/>
<polygon fill="black" stroke="black" points="309.17,-141.3 319.17,-137.8 309.17,-134.3 309.17,-141.3"/>
</g>
</g>
</svg>
