<?xml version="1.0" encoding="UTF-8" standalone="no"?>
<!DOCTYPE svg PUBLIC "-//W3C//DTD SVG 1.1//EN"
 "http://www.w3.org/Graphics/SVG/1.1/DTD/svg11.dtd">
<!-- Generated by graphviz version 5.0.0 (20220707.1540)
 -->
<!-- Title: dependencies Pages: 1 -->
<svg width="354pt" height="174pt"
 viewBox="0.00 0.00 354.00 173.80" xmlns="http://www.w3.org/2000/svg" xmlns:xlink="http://www.w3.org/1999/xlink">
<g id="graph0" class="graph" transform="scale(1 1) rotate(0) translate(4 169.8)">
<title>dependencies</title>
<polygon fill="white" stroke="transparent" points="-4,4 -4,-169.8 350,-169.8 350,4 -4,4"/>
<text text-anchor="middle" x="173" y="-8.2" font-family="sans-serif" font-size="14.00">dependencies</text>
<g id="clust1" class="cluster">
<title>cluster_KitchenModule</title>
<polygon fill="none" stroke="black" stroke-dasharray="1,5" points="8,-32.8 8,-157.8 338,-157.8 338,-32.8 8,-32.8"/>
</g>
<g id="clust4" class="cluster">
<title>cluster_KitchenModule_imports</title>
<polygon fill="none" stroke="black" points="166,-40.8 166,-92.8 330,-92.8 330,-40.8 166,-40.8"/>
</g>
<g id="clust2" class="cluster">
<title>cluster_KitchenModule_declarations</title>
<polygon fill="none" stroke="black" points="16,-40.8 16,-92.8 158,-92.8 158,-40.8 16,-40.8"/>
</g>
<!-- KitchenComponent -->
<g id="node1" class="node">
<title>KitchenComponent</title>
<polygon fill="#ffffb3" stroke="black" points="149.65,-84.8 24.35,-84.8 24.35,-48.8 149.65,-48.8 149.65,-84.8"/>
<text text-anchor="middle" x="87" y="-62.6" font-family="Times,serif" font-size="14.00">KitchenComponent</text>
</g>
<!-- KitchenModule -->
<g id="node2" class="node">
<title>KitchenModule</title>
<polygon fill="#8dd3c7" stroke="black" points="218.87,-149.8 215.87,-153.8 194.87,-153.8 191.87,-149.8 115.13,-149.8 115.13,-113.8 218.87,-113.8 218.87,-149.8"/>
<text text-anchor="middle" x="167" y="-127.6" font-family="Times,serif" font-size="14.00">KitchenModule</text>
</g>
<!-- KitchenComponent&#45;&gt;KitchenModule -->
<g id="edge1" class="edge">
<title>KitchenComponent&#45;&gt;KitchenModule</title>
<path fill="none" stroke="black" d="M132.44,-84.91C132.44,-84.91 132.44,-103.79 132.44,-103.79"/>
<polygon fill="black" stroke="black" points="128.94,-103.79 132.44,-113.79 135.94,-103.79 128.94,-103.79"/>
</g>
<!-- KitchenRoutingModule -->
<g id="node3" class="node">
<title>KitchenRoutingModule</title>
<polygon fill="#8dd3c7" stroke="black" points="322.49,-84.8 319.49,-88.8 298.49,-88.8 295.49,-84.8 173.51,-84.8 173.51,-48.8 322.49,-48.8 322.49,-84.8"/>
<text text-anchor="middle" x="248" y="-62.6" font-family="Times,serif" font-size="14.00">KitchenRoutingModule</text>
</g>
<!-- KitchenRoutingModule&#45;&gt;KitchenModule -->
<g id="edge2" class="edge">
<title>KitchenRoutingModule&#45;&gt;KitchenModule</title>
<path fill="none" stroke="black" d="M196.22,-84.91C196.22,-84.91 196.22,-103.79 196.22,-103.79"/>
<polygon fill="black" stroke="black" points="192.72,-103.79 196.22,-113.79 199.72,-103.79 192.72,-103.79"/>
</g>
</g>
</svg>
